<?xml version="1.0" encoding="iso-8859-1"?>
<svg height="800px" width="800px" version="1.1" id="Capa_1" xmlns="http://www.w3.org/2000/svg" xmlns:xlink="http://www.w3.org/1999/xlink" 
	 viewBox="0 0 46.379 46.379" xml:space="preserve">
<g>
	<path style="fill:#010002;" d="M45.281,7.058c-0.3-0.648-0.9-1.112-1.615-1.243c-0.125-0.021-0.25-0.031-0.375-0.031
		c-0.584,0-1.135,0.227-1.551,0.641l-3.553,3.556l-1.658-0.128l-0.128-1.658l3.552-3.554c0.508-0.503,0.735-1.229,0.609-1.941
		c-0.129-0.706-0.594-1.305-1.246-1.602C37.744,0.379,35.999,0,34.269,0c-3.226,0-6.26,1.256-8.543,3.537
		c-3.181,3.183-4.322,7.743-3.038,12.008L1.474,36.757c-1.943,1.946-1.959,5.093-0.035,7.021l1.165,1.165
		c0.926,0.926,2.162,1.436,3.478,1.436c1.334,0,2.592-0.521,3.542-1.469L30.84,23.693c1.121,0.332,2.283,0.503,3.463,0.503
		c3.226,0,6.26-1.259,8.542-3.541C46.396,17.104,47.376,11.641,45.281,7.058z M28.73,19.605L16.879,31.457H16.87L6.519,41.807
		c-0.122,0.121-0.275,0.186-0.444,0.186c-0.146,0-0.276-0.052-0.373-0.148L4.537,40.68c-0.215-0.216-0.196-0.582,0.04-0.819
		l10.118-10.117l0.231-0.238L26.782,17.65c0.64-0.647,0.816-1.601,0.449-2.429c-1.301-2.946-0.675-6.316,1.595-8.584
		c1.393-1.395,3.229-2.188,5.191-2.251l-1.421,1.421c-0.456,0.454-0.688,1.08-0.639,1.722l0.349,4.533
		c0.084,1.081,0.931,1.93,2.017,2.017l4.514,0.347c0.062,0.006,0.124,0.009,0.187,0.009c0.575,0,1.141-0.234,1.552-0.644
		l1.418-1.419c-0.067,1.938-0.856,3.798-2.245,5.186c-1.455,1.456-3.39,2.257-5.447,2.257c-1.09-0.001-2.146-0.224-3.133-0.66
		c-0.282-0.124-0.581-0.188-0.889-0.188C29.693,18.964,29.143,19.192,28.73,19.605z"/>
</g>
</svg>